<?xml version="1.0" encoding="utf-8"?>
<!-- Generator: Adobe Illustrator 24.0.1, SVG Export Plug-In . SVG Version: 6.00 Build 0)  -->
<svg version="1.1" id="Livello_1" xmlns="http://www.w3.org/2000/svg" xmlns:xlink="http://www.w3.org/1999/xlink" x="0px" y="0px"
	 viewBox="0 0 80 80" style="enable-background:new 0 0 80 80;" xml:space="preserve">
<style type="text/css">
	.st0{fill:none;stroke:#787878;}
</style>
<path class="st0" d="M42.3,5.5L44,1.7l0.9,4l0.3,1.2l0.6-1.1L48,2.4l0.5,4.1l0.2,1.2l0.7-1l2.5-3.3L52,7.5l0,1.2l0.8-0.9l2.8-3
	L55.3,9l-0.1,1.2l0.9-0.8l3.1-2.7l-0.8,4l-0.2,1.2l1-0.7l3.4-2.4l-1.2,3.9L61.1,14l1.1-0.6l3.6-2l-1.6,3.8l-0.5,1.1l1.1-0.5l3.8-1.6
	l-2,3.6L66,18.9l1.2-0.4l3.9-1.2l-2.4,3.4l-0.7,1l1.2-0.2l4-0.8l-2.7,3.1l-0.8,0.9l1.2-0.1l4.1-0.3l-3,2.8L71.3,28l1.2,0l4.1,0.1
	l-3.3,2.5l-1,0.7l1.2,0.2l4.1,0.5l-3.5,2.1l-1.1,0.6l1.2,0.3l4,0.9l-3.7,1.7l-1.1,0.5l1.2,0.4l3.9,1.3l-3.9,1.3l-1.2,0.4l1.1,0.5
	l3.7,1.7l-4,0.9l-1.2,0.3l1.1,0.6l3.5,2.1l-4.1,0.5l-1.2,0.2l1,0.7l3.3,2.5L72.5,52l-1.2,0l0.9,0.8l3,2.8L71,55.3l-1.2-0.1l0.8,0.9
	l2.7,3.1l-4-0.8l-1.2-0.2l0.7,1l2.4,3.4l-3.9-1.2L66,61.1l0.6,1.1l2,3.6l-3.8-1.6l-1.1-0.5l0.5,1.1l1.6,3.8l-3.6-2L61.1,66l0.4,1.2
	l1.2,3.9l-3.4-2.4l-1-0.7l0.2,1.2l0.8,4l-3.1-2.7l-0.9-0.8l0.1,1.2l0.3,4.1l-2.8-3L52,71.3l0,1.2l-0.1,4.1l-2.5-3.3l-0.7-1l-0.2,1.2
	L48,77.6l-2.1-3.5l-0.6-1.1L45,74.3l-0.9,4l-1.7-3.7l-0.5-1.1l-0.4,1.2L40,78.5l-1.3-3.9l-0.4-1.2l-0.5,1.1L36,78.3l-0.9-4l-0.3-1.2
	l-0.6,1.1L32,77.6l-0.5-4.1l-0.2-1.2l-0.7,1l-2.5,3.3L28,72.5l0-1.2l-0.8,0.9l-2.8,3l0.3-4.1l0.1-1.2l-0.9,0.8l-3.1,2.7l0.8-4
	l0.2-1.2l-1,0.7l-3.4,2.4l1.2-3.9l0.4-1.2l-1.1,0.6l-3.6,2l1.6-3.8l0.5-1.1l-1.1,0.5l-3.8,1.6l2-3.6l0.6-1.1l-1.2,0.4l-3.9,1.2
	l2.4-3.4l0.7-1l-1.2,0.2l-4,0.8l2.7-3.1l0.8-0.9L9,55.3l-4.1,0.3l3-2.8L8.7,52l-1.2,0l-4.1-0.1l3.3-2.5l1-0.7l-1.2-0.2L2.4,48
	l3.5-2.1l1.1-0.6L5.7,45l-4-0.9l3.7-1.7l1.1-0.5l-1.2-0.4L1.5,40l3.9-1.3l1.2-0.4l-1.1-0.5L1.7,36l4-0.9l1.2-0.3l-1.1-0.6L2.4,32
	l4.1-0.5l1.2-0.2l-1-0.7l-3.3-2.5L7.5,28l1.2,0l-0.9-0.8l-3-2.8L9,24.7l1.2,0.1l-0.8-0.9l-2.7-3.1l4,0.8l1.2,0.2l-0.7-1l-2.4-3.4
	l3.9,1.2l1.2,0.4l-0.6-1.1l-2-3.6l3.8,1.6l1.1,0.5l-0.5-1.1l-1.6-3.8l3.6,2l1.1,0.6l-0.4-1.2l-1.2-3.9l3.4,2.4l1,0.7l-0.2-1.2
	l-0.8-4l3.1,2.7l0.9,0.8L24.7,9l-0.3-4.1l2.8,3L28,8.7l0-1.2l0.1-4.1l2.5,3.3l0.7,1l0.2-1.2L32,2.4l2.1,3.5l0.6,1.1L35,5.7l0.9-4
	l1.7,3.7l0.5,1.1l0.4-1.2L40,1.5l1.3,3.9l0.4,1.2L42.3,5.5z"/>
</svg>
