<svg width="80" height="80" viewBox="0 0 80 80" fill="none" xmlns="http://www.w3.org/2000/svg">
<path d="M42.2739 5.46011L44.0217 1.73572L44.957 5.74211L45.2364 6.93882L45.8719 5.88701L47.9994 2.36572L48.5108 6.44793L48.6635 7.66728L49.4055 6.68766L51.8894 3.40806L51.9713 7.52135L51.9958 8.74999L52.836 7.85329L55.6492 4.8513L55.3007 8.95061L55.1966 10.1751L56.126 9.37113L59.2375 6.67963L58.4624 10.7201L58.2309 11.9269L59.2392 11.2245L62.6151 8.87303L61.4218 12.8103L61.0654 13.9864L62.1417 13.3932L65.7448 11.4075L64.1466 15.1984L63.6692 16.3308L64.8016 15.8534L68.5925 14.2552L66.6068 17.8583L66.0136 18.9346L67.1897 18.5782L71.127 17.3849L68.7755 20.7608L68.0731 21.7691L69.2799 21.5376L73.3204 20.7625L70.6289 23.874L69.8249 24.8034L71.0494 24.6993L75.1487 24.3508L72.1467 27.164L71.25 28.0042L72.4787 28.0287L76.5919 28.1106L73.3123 30.5945L72.3327 31.3365L73.5521 31.4892L77.6343 32.0006L74.113 34.1281L73.0612 34.7636L74.2579 35.043L78.2643 35.9783L74.5399 37.7261L73.4274 38.2481L74.5884 38.6511L78.4751 40L74.5884 41.3489L73.4274 41.7519L74.5399 42.2739L78.2643 44.0217L74.2579 44.957L73.0612 45.2364L74.113 45.8719L77.6343 47.9994L73.5521 48.5108L72.3327 48.6635L73.3123 49.4055L76.5919 51.8894L72.4787 51.9713L71.25 51.9958L72.1467 52.836L75.1487 55.6492L71.0494 55.3007L69.8249 55.1966L70.6289 56.126L73.3204 59.2375L69.2799 58.4624L68.0731 58.2309L68.7755 59.2392L71.127 62.6151L67.1897 61.4218L66.0136 61.0654L66.6068 62.1417L68.5925 65.7448L64.8016 64.1466L63.6692 63.6692L64.1466 64.8016L65.7448 68.5925L62.1417 66.6068L61.0654 66.0136L61.4218 67.1897L62.6151 71.127L59.2392 68.7755L58.2309 68.0731L58.4624 69.2799L59.2375 73.3204L56.126 70.6289L55.1966 69.8249L55.3007 71.0494L55.6492 75.1487L52.836 72.1467L51.9958 71.25L51.9713 72.4787L51.8894 76.5919L49.4055 73.3123L48.6635 72.3327L48.5108 73.5521L47.9994 77.6343L45.8719 74.113L45.2364 73.0612L44.957 74.2579L44.0217 78.2643L42.2739 74.5399L41.7519 73.4274L41.3489 74.5884L40 78.4751L38.6511 74.5884L38.2481 73.4274L37.7261 74.5399L35.9783 78.2643L35.043 74.2579L34.7636 73.0612L34.1281 74.113L32.0006 77.6343L31.4892 73.5521L31.3365 72.3327L30.5945 73.3123L28.1106 76.5919L28.0287 72.4787L28.0042 71.25L27.164 72.1467L24.3508 75.1487L24.6993 71.0494L24.8034 69.8249L23.874 70.6289L20.7625 73.3204L21.5376 69.2799L21.7691 68.0731L20.7608 68.7755L17.3849 71.127L18.5782 67.1897L18.9346 66.0136L17.8583 66.6068L14.2552 68.5925L15.8534 64.8016L16.3308 63.6692L15.1984 64.1466L11.4075 65.7448L13.3932 62.1417L13.9864 61.0654L12.8103 61.4218L8.87303 62.6151L11.2245 59.2392L11.9269 58.2309L10.7201 58.4624L6.67963 59.2375L9.37113 56.126L10.1751 55.1966L8.95061 55.3007L4.8513 55.6492L7.85329 52.836L8.74999 51.9958L7.52135 51.9713L3.40806 51.8894L6.68766 49.4055L7.66728 48.6635L6.44793 48.5108L2.36572 47.9994L5.88701 45.8719L6.93882 45.2364L5.74211 44.957L1.73572 44.0217L5.46011 42.2739L6.57258 41.7519L5.41163 41.3489L1.52495 40L5.41163 38.6511L6.57258 38.2481L5.46011 37.7261L1.73572 35.9783L5.74211 35.043L6.93882 34.7636L5.88701 34.1281L2.36572 32.0006L6.44793 31.4892L7.66728 31.3365L6.68766 30.5945L3.40805 28.1106L7.52135 28.0287L8.74999 28.0042L7.85329 27.164L4.8513 24.3508L8.95061 24.6993L10.1751 24.8034L9.37113 23.874L6.67963 20.7625L10.7201 21.5376L11.9269 21.7691L11.2245 20.7608L8.87303 17.3849L12.8103 18.5782L13.9864 18.9346L13.3932 17.8583L11.4075 14.2552L15.1984 15.8534L16.3308 16.3308L15.8534 15.1984L14.2552 11.4075L17.8583 13.3932L18.9346 13.9864L18.5782 12.8103L17.3849 8.87303L20.7608 11.2245L21.7691 11.9269L21.5376 10.7201L20.7625 6.67963L23.874 9.37113L24.8034 10.1751L24.6993 8.95061L24.3508 4.8513L27.164 7.85329L28.0042 8.74999L28.0287 7.52135L28.1106 3.40805L30.5945 6.68766L31.3365 7.66728L31.4892 6.44793L32.0006 2.36572L34.1281 5.88701L34.7636 6.93882L35.043 5.74211L35.9783 1.73572L37.7261 5.46011L38.2481 6.57258L38.6511 5.41163L40 1.52495L41.3489 5.41163L41.7519 6.57258L42.2739 5.46011Z" stroke="#2D2D2D"/>
</svg>
